# xmcd CD database file
#
# Track frame offsets:
#	150
#	18158
#	38971
#	61940
#	83960
#	103829
#	121302
#	139576
#	156025
#	175065
#	197256
#	216106
#
# Disc length: 3121 seconds
#
# Revision: 0
# Processed by: cddbd v1.5.2PL0 Copyright (c) Steve Scherf et al.
# Submitted via: jetAudio 7
#
DISCID=970c2f0c
DTITLE=張欣欣  - 紅顔 RED FACE
DYEAR=1900
DGENRE=장르 없음
TTITLE0=童話
TTITLE1=七天七世紀
TTITLE2=親愛的不要離開我
TTITLE3=吻別
TTITLE4=無所謂
TTITLE5=別讓我一個人醉
TTITLE6=紅顔
TTITLE7=白樺林
TTITLE8=愛我你怕了嗎
TTITLE9=完美生活
TTITLE10=最遠的你是我最近的愛
TTITLE11=江南
EXTD=
EXTT0=
EXTT1=
EXTT2=
EXTT3=
EXTT4=
EXTT5=
EXTT6=
EXTT7=
EXTT8=
EXTT9=
EXTT10=
EXTT11=
PLAYORDER=
